<?xml version="1.0" standalone="no"?>
<!DOCTYPE svg PUBLIC "-//W3C//DTD SVG 20010904//EN"
 "http://www.w3.org/TR/2001/REC-SVG-20010904/DTD/svg10.dtd">
<svg version="1.0" xmlns="http://www.w3.org/2000/svg"
 width="1024.000000pt" height="1024.000000pt" viewBox="0 0 1024.000000 1024.000000"
 preserveAspectRatio="xMidYMid meet">
<metadata>
Created by potrace 1.11, written by Peter Selinger 2001-2013
</metadata>
<g transform="translate(0.000000,1024.000000) scale(0.100000,-0.100000)"
fill="#000000" stroke="none">
<path d="M2700 9990 l0 -249 133 -3 132 -3 2 -45 c20 -373 141 -738 351 -1060
92 -142 194 -262 340 -401 l122 -116 0 -406 0 -407 80 0 80 0 2 -287 3 -288
1175 0 1175 0 3 288 2 287 80 0 80 0 0 407 0 406 122 116 c143 136 246 257
338 396 209 317 333 692 353 1065 l2 45 133 3 132 3 0 249 0 250 -670 0 -670
0 0 -250 0 -250 191 0 192 0 -7 -80 c-17 -194 -92 -423 -197 -599 -220 -370
-575 -614 -1014 -697 -124 -24 -367 -24 -495 1 -656 124 -1152 658 -1207 1300
l-6 75 192 0 191 0 0 250 0 250 -670 0 -670 0 0 -250z"/>
<path d="M1720 6795 l0 -1125 655 0 655 0 0 -290 0 -290 -655 0 -655 0 0
-1125 0 -1125 330 0 330 0 0 790 0 790 293 -2 292 -3 0 -1080 0 -1080 -622 -3
-623 -2 0 -1125 0 -1125 330 0 330 0 0 790 0 790 295 0 295 0 0 -242 c0 -280
7 -321 77 -467 38 -80 59 -108 137 -186 100 -101 171 -146 301 -192 l80 -28
633 -3 632 -3 0 839 0 838 -62 13 c-98 19 -287 85 -379 131 -685 343 -1049
1096 -888 1838 103 473 421 890 848 1110 141 73 222 104 366 142 l110 28 3
471 2 471 -1225 0 -1225 0 0 790 0 790 -330 0 -330 0 0 -1125z"/>
<path d="M7860 7130 l0 -790 -1225 0 -1225 0 2 -471 3 -471 110 -28 c61 -16
129 -35 152 -43 536 -195 942 -659 1063 -1213 145 -667 -143 -1362 -720 -1736
-172 -112 -406 -208 -567 -234 l-43 -7 0 -839 0 -839 633 3 632 3 88 31 c125
45 190 87 292 189 96 95 142 168 186 295 21 60 23 86 27 333 l4 267 294 0 294
0 0 -790 0 -790 330 0 330 0 0 1125 0 1125 -622 2 -623 3 0 1080 0 1080 293 3
292 2 0 -790 0 -790 330 0 330 0 0 1125 0 1125 -655 0 -655 0 0 290 0 290 655
0 655 0 0 1125 0 1125 -330 0 -330 0 0 -790z"/>
<path d="M5015 4839 c-234 -21 -480 -137 -654 -309 -195 -192 -304 -437 -317
-715 -15 -310 97 -595 319 -814 198 -195 432 -297 709 -308 149 -7 255 7 378
47 588 192 896 830 680 1408 -91 241 -280 453 -510 571 -196 101 -388 139
-605 120z m287 -508 c84 -27 203 -106 263 -174 57 -65 108 -163 130 -247 23
-90 17 -252 -13 -334 -54 -148 -161 -270 -295 -336 -184 -91 -350 -91 -534 0
-134 66 -241 188 -295 336 -30 82 -36 245 -13 333 56 215 224 380 444 436 78
20 227 13 313 -14z"/>
</g>
</svg>
